<svg xmlns="http://www.w3.org/2000/svg" viewBox="0 0 700 394" role="img" aria-labelledby="t d"><title id="t">التاسعة نيوز</title><desc id="d">شعار التاسعة نيوز</desc><defs><linearGradient id="b" x1=".15" y1=".1" x2=".85" y2=".9"><stop offset="0" stop-color="#2469bd"/><stop offset="1" stop-color="#1c8fe3"/></linearGradient><linearGradient id="b2" x1="0" y1="1" x2="1" y2="0"><stop offset="0" stop-color="#1766b8"/><stop offset="1" stop-color="#0c3f7b"/></linearGradient><linearGradient id="k" x1="0" y1="0" x2="1" y2="1"><stop offset="0" stop-color="#0c0c0d"/><stop offset="1" stop-color="#292929"/></linearGradient></defs>
<!-- exact-proportion 9 mark -->
<path d="M210 2c-82 0-149 67-149 149 0 61 34 112 85 137l55 27-34-55-27-18c-30-20-48-52-48-91 0-54 34-100 84-116l77-26c-9-4-22-7-43-7z" fill="url(#k)"/>
<path d="M210 2c82 0 149 67 149 149 0 62-34 113-86 138l-57 27 35-57 28-18c30-20 48-52 48-90 0-54-34-100-84-117l-77-25c9-4 23-7 44-7z" fill="url(#b)"/>
<path d="M124 125c20-25 51-40 84-40 59 0 107 48 107 107 0 28-11 54-29 74l-47 28 28-46c9-15 14-31 14-49 0-41-33-74-74-74-20 0-39 8-53 21z" fill="#fff"/>
<circle cx="208" cy="191" r="42" fill="#ef2026"/>
<!-- NEWS wordmark -->
<g transform="translate(280 255) skewX(-8)"><text x="0" y="0" font-family="Arial Black,Arial,Helvetica,sans-serif" font-size="96" font-weight="900" font-style="italic" letter-spacing="-7" fill="#151515">NEW</text><text x="263" y="0" font-family="Arial Black,Arial,Helvetica,sans-serif" font-size="96" font-weight="900" font-style="italic" letter-spacing="-7" fill="#ef2026">S</text></g>
<!-- underline -->
<path d="M190 278c34-22 64-27 102-24h344c-11 12-25 19-47 20H292c-43-1-72 8-102 25z" fill="#1b66b8"/>
<!-- Arabic wordmark exactly under line -->
<text x="652" y="326" direction="rtl" text-anchor="end" font-family="Tahoma,Arial,sans-serif" font-size="29" font-weight="700" fill="#153b70">التاسعة نيوز</text>
</svg>